<?xml version="1.0" encoding="UTF-8"?>
<svg version="1.1" xmlns="http://www.w3.org/2000/svg" width="500" height="500">
<path d="M0 0 C18.15 0 36.3 0 55 0 C56.06927082 3.20781246 56.08634483 5.38936399 56.02172852 8.7565918 C56.00130493 9.95409058 55.98088135 11.15158936 55.95983887 12.38537598 C55.9331311 13.64394409 55.90642334 14.90251221 55.87890625 16.19921875 C55.85824097 17.35603149 55.83757568 18.51284424 55.81628418 19.70471191 C55.73742876 24.03241633 55.64940961 28.35994984 55.5625 32.6875 C55.376875 42.360625 55.19125 52.03375 55 62 C75.13 62 95.26 62 116 62 C116 79.82 116 97.64 116 116 C95.87 116 75.74 116 55 116 C55 136.46 55 156.92 55 178 C36.85 178 18.7 178 0 178 C0 157.54 0 137.08 0 116 C-20.46 116 -40.92 116 -62 116 C-62 98.18 -62 80.36 -62 62 C-41.54 62 -21.08 62 0 62 C0 41.54 0 21.08 0 0 Z " fill="#FB0202" transform="translate(223,161)"/>
<path d="M0 0 C18.15 0 36.3 0 55 0 C56.06927082 3.20781246 56.08634483 5.38936399 56.02172852 8.7565918 C56.00130493 9.95409058 55.98088135 11.15158936 55.95983887 12.38537598 C55.9331311 13.64394409 55.90642334 14.90251221 55.87890625 16.19921875 C55.85824097 17.35603149 55.83757568 18.51284424 55.81628418 19.70471191 C55.73742876 24.03241633 55.64940961 28.35994984 55.5625 32.6875 C55.376875 42.360625 55.19125 52.03375 55 62 C75.13 62 95.26 62 116 62 C116 62.33 116 62.66 116 63 C95.21 63 74.42 63 53 63 C53 42.54 53 22.08 53 1 C35.84 1 18.68 1 1 1 C1 21.46 1 41.92 1 63 C-19.46 63 -39.92 63 -61 63 C-61 80.16 -61 97.32 -61 115 C-40.54 115 -20.08 115 1 115 C1 135.46 1 155.92 1 177 C18.16 177 35.32 177 53 177 C53 156.54 53 136.08 53 115 C73.79 115 94.58 115 116 115 C116 115.33 116 115.66 116 116 C95.87 116 75.74 116 55 116 C55 136.46 55 156.92 55 178 C36.85 178 18.7 178 0 178 C0 157.54 0 137.08 0 116 C-20.46 116 -40.92 116 -62 116 C-62 98.18 -62 80.36 -62 62 C-41.54 62 -21.08 62 0 62 C0 41.54 0 21.08 0 0 Z " fill="#FDB8B8" transform="translate(223,161)"/>
<path d="M0 0 C18.15 0 36.3 0 55 0 C56.06927082 3.20781246 56.08634483 5.38936399 56.02172852 8.7565918 C56.00130493 9.95409058 55.98088135 11.15158936 55.95983887 12.38537598 C55.9331311 13.64394409 55.90642334 14.90251221 55.87890625 16.19921875 C55.85824097 17.35603149 55.83757568 18.51284424 55.81628418 19.70471191 C55.73742876 24.03241633 55.64940961 28.35994984 55.5625 32.6875 C55.376875 42.360625 55.19125 52.03375 55 62 C75.13 62 95.26 62 116 62 C116 62.33 116 62.66 116 63 C95.21 63 74.42 63 53 63 C53 42.54 53 22.08 53 1 C35.84 1 18.68 1 1 1 C1 21.46 1 41.92 1 63 C-19.79 63 -40.58 63 -62 63 C-62 62.67 -62 62.34 -62 62 C-41.54 62 -21.08 62 0 62 C0 41.54 0 21.08 0 0 Z " fill="#FECAC9" transform="translate(223,161)"/>
<path d="" fill="#FFFFFF" transform="translate(0,0)"/>
<path d="" fill="#FFFFFF" transform="translate(0,0)"/>
<path d="" fill="#FFFFFF" transform="translate(0,0)"/>
<path d="" fill="#FFFFFF" transform="translate(0,0)"/>
<path d="" fill="#FFFFFF" transform="translate(0,0)"/>
<path d="" fill="#FFFFFF" transform="translate(0,0)"/>
<path d="" fill="#FFFFFF" transform="translate(0,0)"/>
<path d="" fill="#FFFFFF" transform="translate(0,0)"/>
<path d="" fill="#FFFFFF" transform="translate(0,0)"/>
<path d="" fill="#FFFFFF" transform="translate(0,0)"/>
<path d="" fill="#FFFFFF" transform="translate(0,0)"/>
<path d="" fill="#FFFFFF" transform="translate(0,0)"/>
<path d="" fill="#FFFFFF" transform="translate(0,0)"/>
<path d="" fill="#FFFFFF" transform="translate(0,0)"/>
<path d="" fill="#FFFFFF" transform="translate(0,0)"/>
<path d="" fill="#FFFFFF" transform="translate(0,0)"/>
<path d="" fill="#FFFFFF" transform="translate(0,0)"/>
<path d="" fill="#FFFFFF" transform="translate(0,0)"/>
<path d="" fill="#FFFFFF" transform="translate(0,0)"/>
<path d="" fill="#FFFFFF" transform="translate(0,0)"/>
<path d="" fill="#FFFFFF" transform="translate(0,0)"/>
<path d="" fill="#FFFFFF" transform="translate(0,0)"/>
<path d="" fill="#FFFFFF" transform="translate(0,0)"/>
<path d="" fill="#FFFFFF" transform="translate(0,0)"/>
<path d="" fill="#FFFFFF" transform="translate(0,0)"/>
<path d="" fill="#FFFFFF" transform="translate(0,0)"/>
<path d="" fill="#FFFFFF" transform="translate(0,0)"/>
<path d="" fill="#FFFFFF" transform="translate(0,0)"/>
<path d="" fill="#FFFFFF" transform="translate(0,0)"/>
<path d="" fill="#FFFFFF" transform="translate(0,0)"/>
<path d="" fill="#FFFFFF" transform="translate(0,0)"/>
<path d="" fill="#FFFFFF" transform="translate(0,0)"/>
<path d="" fill="#FFFFFF" transform="translate(0,0)"/>
<path d="" fill="#FFFFFF" transform="translate(0,0)"/>
<path d="" fill="#FFFFFF" transform="translate(0,0)"/>
<path d="" fill="#FFFFFF" transform="translate(0,0)"/>
<path d="" fill="#FFFFFF" transform="translate(0,0)"/>
<path d="" fill="#FFFFFF" transform="translate(0,0)"/>
<path d="" fill="#FFFFFF" transform="translate(0,0)"/>
<path d="" fill="#FFFFFF" transform="translate(0,0)"/>
<path d="" fill="#FFFFFF" transform="translate(0,0)"/>
<path d="" fill="#FFFFFF" transform="translate(0,0)"/>
<path d="" fill="#FFFFFF" transform="translate(0,0)"/>
<path d="" fill="#FFFFFF" transform="translate(0,0)"/>
<path d="" fill="#FFFFFF" transform="translate(0,0)"/>
<path d="" fill="#FFFFFF" transform="translate(0,0)"/>
<path d="" fill="#FFFFFF" transform="translate(0,0)"/>
<path d="" fill="#FFFFFF" transform="translate(0,0)"/>
<path d="" fill="#FFFFFF" transform="translate(0,0)"/>
<path d="" fill="#FFFFFF" transform="translate(0,0)"/>
<path d="" fill="#FFFFFF" transform="translate(0,0)"/>
<path d="" fill="#FFFFFF" transform="translate(0,0)"/>
<path d="" fill="#FFFFFF" transform="translate(0,0)"/>
<path d="" fill="#FFFFFF" transform="translate(0,0)"/>
<path d="" fill="#FFFFFF" transform="translate(0,0)"/>
<path d="" fill="#FFFFFF" transform="translate(0,0)"/>
<path d="" fill="#FFFFFF" transform="translate(0,0)"/>
<path d="" fill="#FF00FF" transform="translate(0,0)"/>
<path d="" fill="#FFFFFF" transform="translate(0,0)"/>
<path d="" fill="#FFFFFF" transform="translate(0,0)"/>
<path d="" fill="#FFFFFF" transform="translate(0,0)"/>
<path d="" fill="#FFFFFF" transform="translate(0,0)"/>
<path d="" fill="#FFFFFF" transform="translate(0,0)"/>
<path d="" fill="#FFFFFF" transform="translate(0,0)"/>
<path d="" fill="#FFFFFF" transform="translate(0,0)"/>
<path d="" fill="#FFFFFF" transform="translate(0,0)"/>
<path d="" fill="#FFFFFF" transform="translate(0,0)"/>
<path d="" fill="#FFFFFF" transform="translate(0,0)"/>
<path d="" fill="#FFFFFF" transform="translate(0,0)"/>
<path d="" fill="#FFFFFF" transform="translate(0,0)"/>
<path d="" fill="#FFFFFF" transform="translate(0,0)"/>
<path d="" fill="#FFFFFF" transform="translate(0,0)"/>
<path d="" fill="#FFFFFF" transform="translate(0,0)"/>
<path d="" fill="#FFFFFF" transform="translate(0,0)"/>
<path d="" fill="#FFFFFF" transform="translate(0,0)"/>
<path d="" fill="#FFFFFF" transform="translate(0,0)"/>
<path d="" fill="#FFFFFF" transform="translate(0,0)"/>
<path d="" fill="#FFFFFF" transform="translate(0,0)"/>
<path d="" fill="#FFFFFF" transform="translate(0,0)"/>
<path d="" fill="#FFFFFF" transform="translate(0,0)"/>
<path d="" fill="#FFFFFF" transform="translate(0,0)"/>
<path d="" fill="#FFFFFF" transform="translate(0,0)"/>
<path d="" fill="#FFFFFF" transform="translate(0,0)"/>
</svg>
